name C:\Users\antoi\Documents\MyRepositories\upper-imu-dc\Results\main_tracking\Case_69\FLX01_linearAccelerations_groundFrame.mot
datacolumns 4
datarows 82
range 3.51000000 4.32000000
endheader 
time	radius_imu_x	radius_imu_y	radius_imu_z	
          3.51000000	         -0.01019469	          9.75733953	          0.25910308	
          3.52000000	         -0.04232156	          9.75643166	          0.27532469	
          3.53000000	         -0.07148037	          9.75696871	          0.28349635	
          3.54000000	         -0.09639453	          9.75903888	          0.28359514	
          3.55000000	         -0.11751280	          9.76079931	          0.27523436	
          3.56000000	         -0.13358075	          9.76476688	          0.26029384	
          3.57000000	         -0.14509364	          9.76981909	          0.23962316	
          3.58000000	         -0.15107224	          9.77494558	          0.21454799	
          3.59000000	         -0.15188197	          9.78103190	          0.18741150	
          3.60000000	         -0.14731586	          9.78735089	          0.15985498	
          3.61000000	         -0.13717166	          9.79335286	          0.13341039	
          3.62000000	         -0.12114946	          9.79868059	          0.10938646	
          3.63000000	         -0.09892064	          9.80285091	          0.08865998	
          3.64000000	         -0.07016153	          9.80545709	          0.07173458	
          3.65000000	         -0.03458328	          9.80616529	          0.05874259	
          3.66000000	          0.00802808	          9.80472853	          0.04948048	
          3.67000000	          0.05778669	          9.80100009	          0.04348294	
          3.68000000	          0.11467223	          9.79492145	          0.04012407	
          3.69000000	          0.17847161	          9.78649995	          0.03872817	
          3.70000000	          0.24873290	          9.77579313	          0.03866097	
          3.71000000	          0.32476248	          9.76291036	          0.03937815	
          3.72000000	          0.40564674	          9.74803371	          0.04041390	
          3.73000000	          0.49031962	          9.73142718	          0.04134518	
          3.74000000	          0.57760245	          9.71342110	          0.04174634	
          3.75000000	          0.66624136	          9.69437029	          0.04116414	
          3.76000000	          0.75494179	          9.67460696	          0.03911433	
          3.77000000	          0.84240513	          9.65439553	          0.03509644	
          3.78000000	          0.92736905	          9.63389233	          0.02862072	
          3.79000000	          1.00865166	          9.61312855	          0.01923552	
          3.80000000	          1.08519727	          9.59204093	          0.00654316	
          3.81000000	          1.15612275	          9.57054670	         -0.00979397	
          3.82000000	          1.22075620	          9.54862290	         -0.03003912	
          3.83000000	          1.27865727	          9.52634736	         -0.05434054	
          3.84000000	          1.32961403	          9.50388753	         -0.08267254	
          3.85000000	          1.37363625	          9.48145321	         -0.11478301	
          3.86000000	          1.41095418	          9.45923818	         -0.15017324	
          3.87000000	          1.44200036	          9.43737805	         -0.18811244	
          3.88000000	          1.46737708	          9.41592049	         -0.22765774	
          3.89000000	          1.48779488	          9.39480369	         -0.26769586	
          3.90000000	          1.50402641	          9.37384722	         -0.30700300	
          3.91000000	          1.51688061	          9.35276032	         -0.34432217	
          3.92000000	          1.52717926	          9.33117682	         -0.37842566	
          3.93000000	          1.53569238	          9.30868705	         -0.40814738	
          3.94000000	          1.54301849	          9.28476043	         -0.43244073	
          3.95000000	          1.54953158	          9.25882370	         -0.45037853	
          3.96000000	          1.55525142	          9.23046165	         -0.46114345	
          3.97000000	          1.56005513	          9.19910856	         -0.46426765	
          3.98000000	          1.56312650	          9.16442823	         -0.45953875	
          3.99000000	          1.56370524	          9.12667345	         -0.44697031	
          4.00000000	          1.56103211	          9.08627276	         -0.42700724	
          4.01000000	          1.55350085	          9.04390447	         -0.40040083	
          4.02000000	          1.53974513	          9.00048154	         -0.36817533	
          4.03000000	          1.51823091	          8.95728620	         -0.33142463	
          4.04000000	          1.48741640	          8.91571213	         -0.29123949	
          4.05000000	          1.44588696	          8.87709876	         -0.24861933	
          4.06000000	          1.39244309	          8.84286076	         -0.20428936	
          4.07000000	          1.32615521	          8.81419073	         -0.15877317	
          4.08000000	          1.24645033	          8.79211444	         -0.11239728	
          4.09000000	          1.15332425	          8.77744177	         -0.06538041	
          4.10000000	          1.04738363	          8.77063335	         -0.01793338	
          4.11000000	          0.92995515	          8.77176534	          0.02973971	
          4.12000000	          0.80310708	          8.78047321	          0.07746820	
          4.13000000	          0.66957869	          8.79594124	          0.12514910	
          4.14000000	          0.53263982	          8.81697821	          0.17276584	
          4.15000000	          0.39589081	          8.84212973	          0.22036591	
          4.16000000	          0.26303314	          8.86977899	          0.26799986	
          4.17000000	          0.13764395	          8.89821445	          0.31563487	
          4.18000000	          0.02297800	          8.92567770	          0.36305493	
          4.19000000	         -0.07819764	          8.95042921	          0.40975892	
          4.20000000	         -0.16374887	          8.97085388	          0.45487364	
          4.21000000	         -0.23232292	          8.98558250	          0.49710864	
          4.22000000	         -0.28350016	          8.99359019	          0.53478667	
          4.23000000	         -0.31789948	          8.99427592	          0.56598484	
          4.24000000	         -0.33719009	          8.98753167	          0.58879067	
          4.25000000	         -0.34398581	          8.97380836	          0.60164607	
          4.26000000	         -0.34162843	          8.95415733	          0.60370409	
          4.27000000	         -0.33385561	          8.93020198	          0.59508282	
          4.28000000	         -0.32436324	          8.90398833	          0.57690029	
          4.29000000	         -0.31636849	          8.87769927	          0.55107941	
          4.30000000	         -0.31225468	          8.85339098	          0.52008029	
          4.31000000	         -0.31342502	          8.83275440	          0.48664856	
          4.32000000	         -0.32034320	          8.81691288	          0.45358931	
